<svg xmlns="http://www.w3.org/2000/svg" width="89" height="32">
  <g fill="#0088CE">
    <path d="M8.555 6.785c-.14-2.526 3.6-4.362 6.441-4.324 1.514.019 2.666.55 2.492 1.556-.114.67-.815 1.425-1.763 1.714-.284.088-.386.21-.386.446 0 .364 1.086 1.052 1.97 1.052 2.015 0 3.781-1.347 3.781-3.288C21.088 1.64 18.196 0 15.007 0 10.065 0 4.843 3.419 4.843 7.158c0 5.754 9.427 5.354 9.427 9.535 0 2.865-3.117 5.084-6.446 5.084-2.623 0-4.476-.973-4.476-2.644 0-1.14 1.41-2.106 2.473-2.106.598 0 1.03.335 1.03.868 0 .676-.72.6-.72 1.21 0 .506.79 1.042 1.905 1.042 1.906 0 2.965-1.235 2.965-2.663 0-1.579-1.71-3.286-4.68-3.276-2.97.01-5.94 2.158-6.284 4.668-.445 3.252 3.218 5.545 7.586 5.545 4.87 0 10.678-2.947 10.776-7.314.129-6.105-9.605-6.019-9.844-10.322zm16.958 2.899a.65.65 0 0 0 .598-.341 16.518 16.518 0 0 1 2.024-3.09.486.486 0 0 0 .02-.627c-.524-.566-1.12-.994-1.806-.994-1.263 0-2.728 1.954-2.728 3.38 0 1.104.892 1.534 1.892 1.672zM43.3 12.23a4.975 4.975 0 0 0-4.42 2.557c.287-1.787-.725-2.998-1.933-2.998-.382.014-.758.1-1.109.254a.38.38 0 0 0-.167.543 4.22 4.22 0 0 1 .41 1.988c0 1.895-1.707 4.168-1.901 6.346-.154 1.76.99 2.273 2.46 2.2a.424.424 0 0 0 .423-.4c.171-3.388 2.368-8.097 4.668-8.097.275 0 .406.213.406.473.004 1.343-2.216 3.46-2.216 5.87 0 1.752.737 2.106 2.03 2.191.23.015.794-.177.822-.407.422-3.582 2.782-6.264 2.782-8.333A2.28 2.28 0 0 0 43.3 12.23zm20.39-8.065c-.039-1.317-1.026-2.25-2.316-2.096a.551.551 0 0 0-.418.514c-.26 4.32-3.984 10.89-4.863 14.868-.842-3.934-1.052-8.778-1.18-13.006-.064-2.029-1.013-2.76-2.105-2.76s-1.174.37-1.437 1.292c-.12.423-.87 3.31-2 6.333-.974 2.593-1.984 5.478-3.246 8.238-1.263 2.76-1.498 3.74-1.391 4.305.107.564.145.884 1.452.884s1.795-.973 2.407-2.572c.663-1.726 3.138-9.404 3.89-10.946.657 9.848 1.053 13.803 5.18 13.471a.469.469 0 0 0 .42-.467c.036-6.756 5.753-13.366 5.606-18.058z"/>
    <path d="M31.206 23.357c.824-1.82 1.614-3.857 2.421-6.045a.502.502 0 0 0-.212-.601 3.297 3.297 0 0 0-1.27-.361c-.424 0-.636.132-.77.462-.51 1.228-1.776 3.948-2.836 3.948-.603 0-.885-.552-.885-1.287 0-1.89 2.413-5.543 3.747-5.543.54 0 .79.292.79.785 0 .42-.172.866.333.866.9 0 1.603-.901 1.603-1.903 0-1.26-1.421-2.462-2.838-2.462-3.417 0-6.342 4.682-6.342 7.772v.19c-.379.749-.968 1.45-1.5 1.45-.457 0-.847-.35-.847-1.02 0-1.605 1.445-4.993 2.37-6.63a.678.678 0 0 0-.03-.695 4.033 4.033 0 0 0-2.373-1.33.665.665 0 0 0-.636.278c-1.167 1.89-2.461 5.957-2.461 8.021 0 2.065 1.118 3.468 2.694 3.468 1.307 0 2.387-.783 3.118-1.913.47 1.184 1.41 1.92 2.56 1.92.427.005.835-.177 1.115-.496-.142.359-.301.762-.481 1.195a17.51 17.51 0 0 0-5.634 1.317c-2.612 1.136-4.283 2.739-4.283 4.291 0 1.863 1.407 2.966 3.6 2.966 3.614 0 6.107-2.73 8.287-7.045 2.662.124 5.36 1.441 6.695 3.121a.334.334 0 0 0 .248.103c.879-.071 1.417-.697 1.417-1.56-.009-2.14-4.865-3.105-7.6-3.262zm-5.35 4.677a4.662 4.662 0 0 1-3.486 1.662c-.71 0-1.367-.403-1.256-.994.37-1.972 3.257-3.226 6.61-3.62a13.736 13.736 0 0 1-1.874 2.95l.006.002zm62.78-15.818c-1.772.603-4.584.462-6.24-.215-.214-.085-.28 0-.214.195.183.553.272 1.131.265 1.713 0 2.184-2.581 7.603-4.274 7.603-.235 0-.414-.287-.414-.572 0-.754 1.068-2.556 1.795-3.64a.545.545 0 0 0-.02-.642 2.135 2.135 0 0 0-1.376-.625c-.538 0-.998.118-1.098.67-.22 1.188-2.064 4.483-3.088 4.483-.412 0-.551-.325-.551-.773 0-1.77 2.737-5.457 4.83-6.962a.37.37 0 0 0 .093-.546c-.485-.552-1.316-1.017-1.895-1.017-.72 0-1.671.754-2.565 1.867-1.025.978-2.224 2.036-3.346 2.687a7.05 7.05 0 0 0 .547-2.437c0-1.383-.737-2.216-2.09-2.216a3.577 3.577 0 0 0-2.802 1.448 3.165 3.165 0 0 0-1.71-.446c-1.407 0-4.587 3.576-4.587 6.453 0 2.276 1.248 3.912 3.372 3.912 2.522 0 4.915-2.355 6.368-4.873.781-.28 1.527-.65 2.223-1.103a8.67 8.67 0 0 0-.738 3.175c0 1.685 1.383 2.694 2.746 2.694a2.419 2.419 0 0 0 2.197-1.435c0 .957.977 1.544 2.231 1.544 3.392 0 6.52-4.98 6.52-8.652 1.616.429 3.909-.841 4.176-2.031.055-.225-.15-.332-.355-.26zm-25.041 8.593c-.464 0-.812-.332-.812-.933 0-1.848 1.496-3.306 2.628-4.39v.176c0 1.463.626 2.381 1.535 2.75-1.054 1.275-2.33 2.397-3.351 2.397zm4.396-3.834c-.46-.154-.75-.473-.75-.91 0-.784.878-1.623 1.386-1.623.257 0 .338.167.338.418 0 .376-.38 1.188-.972 2.115h-.002z"/>
  </g>
</svg>
